<svg width="20" height="17" viewBox="0 0 20 17" fill="none" xmlns="http://www.w3.org/2000/svg">
<path fill-rule="evenodd" clip-rule="evenodd" d="M0.168457 3.52718C0.168457 2.04139 1.37293 0.836914 2.85872 0.836914H17.2068C18.6926 0.836914 19.8971 2.04139 19.8971 3.52718V14.2882C19.8971 15.7741 18.6926 16.9785 17.2068 16.9785H2.85872C1.37293 16.9785 0.168457 15.7741 0.168457 14.2882V3.52718ZM2.85872 2.63042H17.2068C17.7021 2.63042 18.1036 3.03192 18.1036 3.52718V14.2882C18.1036 14.7835 17.7021 15.185 17.2068 15.185H2.85872C2.36346 15.185 1.96197 14.7835 1.96197 14.2882V3.52718C1.96197 3.03192 2.36346 2.63042 2.85872 2.63042ZM4.65223 4.42393C4.15697 4.42393 3.75548 4.82543 3.75548 5.32069C3.75548 5.81595 4.15697 6.21744 4.65223 6.21744C5.14749 6.21744 5.54899 5.81595 5.54899 5.32069C5.54899 4.82543 5.14749 4.42393 4.65223 4.42393ZM14.5165 5.32069C14.5165 4.82543 14.918 4.42393 15.4133 4.42393C15.9086 4.42393 16.31 4.82543 16.31 5.32069C16.31 5.81595 15.9086 6.21744 15.4133 6.21744C14.918 6.21744 14.5165 5.81595 14.5165 5.32069ZM3.75548 8.90771C3.75548 8.41243 4.15697 8.01096 4.65223 8.01096C5.14749 8.01096 5.54899 8.41243 5.54899 8.90771C5.54899 9.40299 5.14749 9.80447 4.65223 9.80447C4.15697 9.80447 3.75548 9.40299 3.75548 8.90771ZM14.5165 8.90771C14.5165 8.41243 14.918 8.01096 15.4133 8.01096C15.9086 8.01096 16.31 8.41243 16.31 8.90771C16.31 9.40299 15.9086 9.80447 15.4133 9.80447C14.918 9.80447 14.5165 9.40299 14.5165 8.90771ZM3.75548 12.4947C3.75548 11.9995 4.15697 11.598 4.65223 11.598C5.14749 11.598 5.54899 11.9995 5.54899 12.4947C5.54899 12.99 5.14749 13.3915 4.65223 13.3915C4.15697 13.3915 3.75548 12.99 3.75548 12.4947ZM14.5165 12.4947C14.5165 11.9995 14.918 11.598 15.4133 11.598C15.9086 11.598 16.31 11.9995 16.31 12.4947C16.31 12.99 15.9086 13.3915 15.4133 13.3915C14.918 13.3915 14.5165 12.99 14.5165 12.4947Z" fill="#767278"/>
</svg>
