<svg width="16" height="17" viewBox="0 0 16 17" fill="none" xmlns="http://www.w3.org/2000/svg">
<mask id="mask0_18_1837" style="mask-type:alpha" maskUnits="userSpaceOnUse" x="0" y="0" width="16" height="17">
<path fill-rule="evenodd" clip-rule="evenodd" d="M5 11.6025C5 11.3264 5.22386 11.1025 5.5 11.1025H14.5C14.7761 11.1025 15 11.3264 15 11.6025C15 11.8787 14.7761 12.1025 14.5 12.1025H5.5C5.22386 12.1025 5 11.8787 5 11.6025Z" fill="black"/>
<path fill-rule="evenodd" clip-rule="evenodd" d="M5 7.60254C5 7.3264 5.22386 7.10254 5.5 7.10254H14.5C14.7761 7.10254 15 7.3264 15 7.60254C15 7.87868 14.7761 8.10254 14.5 8.10254H5.5C5.22386 8.10254 5 7.87868 5 7.60254Z" fill="black"/>
<path fill-rule="evenodd" clip-rule="evenodd" d="M5 3.60254C5 3.3264 5.22386 3.10254 5.5 3.10254H14.5C14.7761 3.10254 15 3.3264 15 3.60254C15 3.87868 14.7761 4.10254 14.5 4.10254H5.5C5.22386 4.10254 5 3.87868 5 3.60254Z" fill="black"/>
<path d="M2.24158 2.29609C2.32012 2.03802 2.67988 2.03802 2.75842 2.29609L2.91999 2.82694C2.95501 2.94201 3.05979 3.02049 3.17841 3.02049H3.72899C3.98772 3.02049 4.09879 3.35389 3.89319 3.51337L3.42479 3.87669C3.33471 3.94656 3.2971 4.06605 3.33057 4.17601L3.50391 4.74557C3.58166 5.00104 3.29055 5.20722 3.08128 5.04489L2.6642 4.72138C2.56726 4.64618 2.43274 4.64618 2.3358 4.72138L1.91872 5.04489C1.70945 5.20722 1.41834 5.00104 1.49609 4.74557L1.66943 4.17601C1.7029 4.06605 1.66529 3.94656 1.57521 3.87669L1.10681 3.51337C0.901213 3.35389 1.01228 3.02049 1.27101 3.02049H1.82159C1.94021 3.02049 2.04499 2.94201 2.08002 2.82694L2.24158 2.29609Z" fill="black"/>
<path d="M2.24158 6.29609C2.32012 6.03802 2.67988 6.03802 2.75842 6.29609L2.91999 6.82694C2.95501 6.94201 3.05979 7.02049 3.17841 7.02049H3.72899C3.98772 7.02049 4.09879 7.35389 3.89319 7.51337L3.42479 7.87669C3.33471 7.94656 3.2971 8.06605 3.33057 8.17601L3.50391 8.74557C3.58166 9.00104 3.29055 9.20721 3.08128 9.04489L2.6642 8.72138C2.56726 8.64618 2.43274 8.64618 2.3358 8.72138L1.91872 9.04489C1.70945 9.20722 1.41834 9.00104 1.49609 8.74557L1.66943 8.17601C1.7029 8.06605 1.66529 7.94656 1.57521 7.87669L1.10681 7.51337C0.901213 7.35389 1.01228 7.02049 1.27101 7.02049H1.82159C1.94021 7.02049 2.04499 6.94201 2.08002 6.82694L2.24158 6.29609Z" fill="black"/>
<path d="M2.24158 10.2961C2.32012 10.038 2.67988 10.038 2.75842 10.2961L2.91999 10.8269C2.95501 10.942 3.05979 11.0205 3.17841 11.0205H3.72899C3.98772 11.0205 4.09879 11.3539 3.89319 11.5134L3.42479 11.8767C3.33471 11.9466 3.2971 12.066 3.33057 12.176L3.50391 12.7456C3.58166 13.001 3.29055 13.2072 3.08128 13.0449L2.6642 12.7214C2.56726 12.6462 2.43274 12.6462 2.3358 12.7214L1.91872 13.0449C1.70945 13.2072 1.41834 13.001 1.49609 12.7456L1.66943 12.176C1.7029 12.066 1.66529 11.9466 1.57521 11.8767L1.10681 11.5134C0.901213 11.3539 1.01228 11.0205 1.27101 11.0205H1.82159C1.94021 11.0205 2.04499 10.942 2.08002 10.8269L2.24158 10.2961Z" fill="black"/>
</mask>
<g mask="url(#mask0_18_1837)">
<rect y="0.102539" width="16" height="16" fill="white"/>
</g>
</svg>
